# xmcd CD database file
#
# Track frame offsets:
#	150
#	36049
#	74498
#	95112
#	125609
#	151709
#	192869
#	242835
#	283515
#	318383
#
# Disc length: 4646 seconds
#
# Revision: 0
# Processed by: cddbd v1.5.2PL0 Copyright (c) Steve Scherf et al.
# Submitted via: CDex 1.70beta2
#
DISCID=8b12240a
DTITLE=Hervé Sellin tentet - Marciac New-York express
DYEAR=2008
DGENRE=Jazz
TTITLE0=Les deux clochers
TTITLE1=Entre Boués,Laüs et Arros
TTITLE2=PisteAudiIt's all in your mind
TTITLE3=The King's lament
TTITLE4=Hugo's apple
TTITLE5=Little boy plays chess
TTITLE6=Anniversary
TTITLE7=Bouncing with JIM
TTITLE8=Le sorcier de la Case-Dieu
TTITLE9=La maison du Roi
EXTD=YEAR: 2008
EXTT0=
EXTT1=
EXTT2=
EXTT3=
EXTT4=
EXTT5=
EXTT6=
EXTT7=
EXTT8=
EXTT9=
PLAYORDER=
